<svg width="30" height="30" viewBox="0 0 30 30" fill="none" xmlns="http://www.w3.org/2000/svg">
<circle cx="15" cy="15" r="14.5" stroke="#D40000"/>
<path d="M5.95215 20V9.33594H9.2334C10.1709 9.33594 11.0083 9.54834 11.7456 9.97314C12.4878 10.3931 13.0664 10.9937 13.4814 11.7749C13.8965 12.5513 14.104 13.4351 14.104 14.4263V14.917C14.104 15.9082 13.8989 16.7896 13.4888 17.561C13.0835 18.3325 12.5098 18.9307 11.7676 19.3555C11.0254 19.7803 10.188 19.9951 9.25537 20H5.95215ZM8.14941 11.1157V18.2349H9.21143C10.0708 18.2349 10.7275 17.9541 11.1816 17.3926C11.6357 16.8311 11.8677 16.0278 11.8774 14.9829V14.4189C11.8774 13.335 11.6528 12.5146 11.2036 11.958C10.7544 11.3965 10.0977 11.1157 9.2334 11.1157H8.14941ZM24.0796 16.4478C23.9966 17.5952 23.5718 18.4985 22.8052 19.1577C22.0435 19.8169 21.0376 20.1465 19.7876 20.1465C18.4204 20.1465 17.3438 19.6875 16.5576 18.7695C15.7764 17.8467 15.3857 16.582 15.3857 14.9756V14.3237C15.3857 13.2983 15.5664 12.395 15.9277 11.6138C16.2891 10.8325 16.8042 10.2344 17.4731 9.81934C18.147 9.39941 18.9282 9.18945 19.8169 9.18945C21.0474 9.18945 22.0386 9.51904 22.7905 10.1782C23.5425 10.8374 23.9771 11.7627 24.0942 12.9541H21.897C21.8433 12.2656 21.6504 11.7676 21.3184 11.46C20.9912 11.1475 20.4907 10.9912 19.8169 10.9912C19.0845 10.9912 18.5352 11.2549 18.1689 11.7822C17.8076 12.3047 17.6221 13.1177 17.6123 14.2212V15.0269C17.6123 16.1792 17.7856 17.0215 18.1323 17.5537C18.4839 18.0859 19.0356 18.3521 19.7876 18.3521C20.4663 18.3521 20.9717 18.1982 21.3037 17.8906C21.6406 17.5781 21.8335 17.0972 21.8823 16.4478H24.0796Z" fill="#D40000"/>
</svg>
